:SAMPLES-PER-SECOND 30
:FULLY-SPECIFIED
:DEGREES
108
root  -5.04439 38.587 0.777008 75.8546 85.6495 73.9821
RightUpLeg  -9.46467 -0.452617 -3.98207
RightLeg  55.4132 7.25063 -4.97727
RightFoot  17.9575 -1.07109 3.89838
RightToes  1.16414e-010 -1.59028e-015 9.93923e-017
Spine  3.72177 -0.592867 -2.95403
Spine1  7.66013 -0.373373 -6.64764
HEad  -19.8531 0.430175 3.172
LeftShoulder1  9.93923e-017 0 1.22299e-017
LeftArm  1.86235 26.3949 -78.9318
LeftForeArm  -13.4123 -12.2237 -3.84086
LeftHand  0.927617 6.52732 -2.02722
RightShoulder  1.98785e-016 -4.96962e-017 1.55301e-017
RightArm  -18.4878 -31.2883 86.2253
RightForeArm  -167.734 14.5102 -14.031
RightHand  1.99301 6.71296 22.7303
LeftUpLeg  -12.9837 -12.7322 -7.51375
LeftLeg  22.9209 0.226906 5.655
LeftFoot  -10.0476 -0.0162573 -0.439697
LeftToes  -6.63929e-010 -3.62392e-011 -1.02376e-010
109
root  -3.48941 38.8674 0.8477 95.0008 87.0368 93.3451
RightUpLeg  -14.5132 -2.34518 -2.57898
RightLeg  55.6781 7.41833 -4.78113
RightFoot  12.5511 -1.05273 4.62093
RightToes  1.16414e-010 -1.59028e-015 9.93923e-017
Spine  3.2407 -1.98045 -4.1564
Spine1  7.24826 -2.49531 -3.9115
HEad  -17.8902 1.93436 2.94073
LeftShoulder1  9.93923e-017 0 1.22299e-017
LeftArm  13.5743 19.7683 -80.7026
LeftForeArm  -24.3422 -18.7532 2.26694
LeftHand  0.857192 6.06334 -0.576281
RightShoulder  1.98785e-016 -4.96962e-017 1.55301e-017
RightArm  -19.8634 -37.2463 85.2422
RightForeArm  -161.732 11.0342 -10.8909
RightHand  1.92988 7.66836 21.4003
LeftUpLeg  -9.27499 -8.90661 -6.94433
LeftLeg  20.6288 -4.66385 4.9747
LeftFoot  -9.97732 -0.0176676 -0.38188
LeftToes  -6.63929e-010 -3.62392e-011 -1.02376e-010
110
root  -1.95275 39.0622 0.967872 127.775 87.309 126.413
RightUpLeg  -19.1211 -3.49009 -1.47665
RightLeg  53.7825 8.14503 -3.28693
RightFoot  9.24203 -0.83867 4.24098
RightToes  1.16414e-010 -1.59028e-015 9.93923e-017
Spine  3.44759 -3.21918 -6.4817
Spine1  6.50187 -4.56896 -0.186302
HEad  -16.5802 3.37364 2.8904
LeftShoulder1  9.93923e-017 0 1.22299e-017
LeftArm  26.0322 13.1979 -81.5282
LeftForeArm  -37.4793 -23.421 11.2102
LeftHand  0.801828 5.73149 0.231044
RightShoulder  1.98785e-016 -4.96962e-017 1.55301e-017
RightArm  -19.9836 -43.1718 82.7966
RightForeArm  -155.842 8.76778 -9.05398
RightHand  1.74048 8.27029 19.4782
LeftUpLeg  -5.89262 -4.93909 -5.86595
LeftLeg  18.899 -9.64088 3.90231
LeftFoot  -9.77552 -0.00415595 -0.768471
LeftToes  -6.63929e-010 -3.62392e-011 -1.02376e-010
111
root  -0.424614 39.1867 1.09906 153.067 86.8142 152.188
RightUpLeg  -22.8243 -4.05894 -0.632185
RightLeg  49.5354 8.7962 -1.83212
RightFoot  6.21359 -0.557764 3.29425
RightToes  1.16414e-010 -1.59028e-015 9.93923e-017
Spine  4.06056 -4.09882 -8.405
Spine1  5.90687 -6.07316 3.23573
HEad  -15.9846 4.3182 2.79495
LeftShoulder1  9.93923e-017 0 1.22299e-017
LeftArm  30.9843 6.00634 -81.1905
LeftForeArm  -43.0132 -26.0328 17.4402
LeftHand  0.763668 5.50258 0.589323
RightShoulder  1.98785e-016 -4.96962e-017 1.55301e-017
RightArm  -19.2176 -49.2862 79.1305
RightForeArm  -152.044 7.66669 -8.50213
RightHand  1.60862 8.73053 18.2077
LeftUpLeg  -2.33606 -2.20746 -4.30846
LeftLeg  17.2897 -13.1548 2.86966
LeftFoot  -9.90662 0.0169364 -1.50701
LeftToes  -6.63929e-010 -3.62392e-011 -1.02376e-010
112
root  1.07876 39.1636 1.23358 165.435 86.2967 164.952
RightUpLeg  -25.5514 -4.39304 -0.139552
RightLeg  42.5663 9.1923 -0.861288
RightFoot  3.76496 -0.470312 3.18878
RightToes  1.16414e-010 -1.59028e-015 9.93923e-017
Spine  4.55506 -4.70239 -9.55365
Spine1  5.64099 -7.00998 5.47417
HEad  -15.8242 5.05808 2.71601
LeftShoulder1  9.93923e-017 0 1.22299e-017
LeftArm  27.7767 -1.65598 -79.9439
LeftForeArm  -39.5408 -28.8311 18.781
LeftHand  0.747111 5.42947 0.975859
RightShoulder  1.98785e-016 -4.96962e-017 1.55301e-017
RightArm  -17.2949 -55.364 74.4878
RightForeArm  -151.92 7.26793 -8.88068
RightHand  1.64833 9.22274 18.26
LeftUpLeg  0.950041 -0.704056 -2.81893
LeftLeg  16.1754 -15.4291 2.3033
LeftFoot  -10.5449 0.0146904 -1.80321
LeftToes  -6.63929e-010 -3.62392e-011 -1.02376e-010
113
root  2.56281 39.0425 1.37339 172.814 85.9691 172.277
RightUpLeg  -27.3427 -4.17277 0.0776502
RightLeg  32.5725 9.94201 0.10817
RightFoot  3.57366 -0.529663 3.61916
RightToes  1.16414e-010 -1.59028e-015 9.93923e-017
Spine  4.84234 -5.27705 -10.1492
Spine1  5.28584 -7.69216 6.94892
HEad  -15.6908 6.05955 2.8039
LeftShoulder1  9.93923e-017 0 1.22299e-017
LeftArm  25.2289 -8.52227 -78.287
LeftForeArm  -37.1014 -31.1951 19.8548
LeftHand  0.738262 5.44854 1.74517
RightShoulder  1.98785e-016 -4.96962e-017 1.55301e-017
RightArm  -13.7538 -60.9067 68.7152
RightForeArm  -154.4 7.28876 -9.68906
RightHand  1.7088 9.3365 18.6441
LeftUpLeg  3.7674 -0.00728199 -1.54195
LeftLeg  15.1341 -16.8148 2.10712
LeftFoot  -11.343 0.00116628 -1.91619
LeftToes  -6.63929e-010 -3.62392e-011 -1.02376e-010
